<svg width="133" height="14" viewBox="0 0 133 14" fill="none" xmlns="http://www.w3.org/2000/svg">
<path d="M6.2161 11.632C5.9881 11.668 5.7541 11.692 5.5141 11.704C5.2741 11.716 5.0161 11.722 4.7401 11.722C4.1641 11.722 3.6301 11.626 3.1381 11.434C2.6461 11.23 2.2141 10.924 1.8421 10.516C1.4821 10.096 1.1941 9.574 0.978102 8.95C0.774102 8.314 0.672102 7.564 0.672102 6.7C0.672102 5.884 0.774102 5.158 0.978102 4.522C1.1941 3.874 1.4941 3.328 1.8781 2.884C2.2741 2.428 2.7421 2.08 3.2821 1.84C3.8221 1.6 4.4221 1.48 5.0821 1.48C5.2381 1.48 5.4301 1.486 5.6581 1.498C5.8861 1.51 6.0721 1.534 6.2161 1.57V0.0399995H8.6461V1.624C8.8621 1.564 9.1141 1.528 9.4021 1.516C9.7021 1.492 9.9481 1.48 10.1401 1.48C10.7161 1.48 11.2501 1.588 11.7421 1.804C12.2341 2.008 12.6601 2.326 13.0201 2.758C13.3921 3.178 13.6801 3.706 13.8841 4.342C14.0881 4.966 14.1901 5.692 14.1901 6.52C14.1901 7.372 14.0761 8.122 13.8481 8.77C13.6201 9.418 13.3081 9.964 12.9121 10.408C12.5161 10.84 12.0541 11.17 11.5261 11.398C11.0101 11.614 10.4581 11.722 9.8701 11.722C9.6661 11.722 9.4501 11.716 9.2221 11.704C9.0061 11.68 8.8141 11.644 8.6461 11.596V13.36H6.2161V11.632ZM9.5641 3.478C9.4321 3.478 9.2641 3.484 9.0601 3.496C8.8561 3.508 8.6881 3.532 8.5561 3.568V9.688C8.6521 9.712 8.7721 9.724 8.9161 9.724C9.0721 9.724 9.2221 9.724 9.3661 9.724C9.6901 9.724 9.9961 9.664 10.2841 9.544C10.5721 9.424 10.8241 9.232 11.0401 8.968C11.2561 8.704 11.4241 8.374 11.5441 7.978C11.6641 7.582 11.7241 7.102 11.7241 6.538C11.7241 5.578 11.5321 4.828 11.1481 4.288C10.7641 3.748 10.2361 3.478 9.5641 3.478ZM5.3701 9.724C5.4661 9.724 5.6101 9.724 5.8021 9.724C6.0061 9.712 6.1741 9.682 6.3061 9.634V3.532C6.1861 3.508 6.0481 3.496 5.8921 3.496C5.7361 3.484 5.5921 3.478 5.4601 3.478C4.8001 3.478 4.2481 3.736 3.8041 4.252C3.3601 4.756 3.1381 5.566 3.1381 6.682C3.1381 7.654 3.3421 8.404 3.7501 8.932C4.1581 9.46 4.6981 9.724 5.3701 9.724ZM15.3373 6.7C15.3373 4.6 15.7993 2.986 16.7233 1.858C17.6473 0.717999 18.9673 0.147999 20.6833 0.147999C21.5833 0.147999 22.3693 0.303999 23.0413 0.616C23.7133 0.927999 24.2713 1.372 24.7153 1.948C25.1593 2.524 25.4893 3.214 25.7053 4.018C25.9213 4.822 26.0293 5.716 26.0293 6.7C26.0293 8.8 25.5613 10.42 24.6253 11.56C23.7013 12.688 22.3873 13.252 20.6833 13.252C19.7713 13.252 18.9793 13.096 18.3073 12.784C17.6353 12.472 17.0773 12.028 16.6333 11.452C16.2013 10.876 15.8773 10.186 15.6613 9.382C15.4453 8.578 15.3373 7.684 15.3373 6.7ZM17.9293 6.7C17.9293 7.336 17.9833 7.924 18.0913 8.464C18.1993 8.992 18.3613 9.448 18.5773 9.832C18.8053 10.216 19.0933 10.516 19.4413 10.732C19.7893 10.948 20.2033 11.056 20.6833 11.056C21.5593 11.056 22.2373 10.714 22.7173 10.03C23.1973 9.346 23.4373 8.236 23.4373 6.7C23.4373 6.088 23.3833 5.518 23.2753 4.99C23.1793 4.462 23.0233 4 22.8073 3.604C22.5913 3.208 22.3093 2.902 21.9613 2.686C21.6133 2.458 21.1873 2.344 20.6833 2.344C19.8073 2.344 19.1293 2.698 18.6493 3.406C18.1693 4.102 17.9293 5.2 17.9293 6.7ZM27.7919 0.526C28.2959 0.429999 28.8479 0.357999 29.4479 0.309999C30.0599 0.249999 30.6659 0.219999 31.2659 0.219999C31.8899 0.219999 32.5139 0.273999 33.1379 0.381999C33.7739 0.478 34.3439 0.681999 34.8479 0.993999C35.3519 1.294 35.7599 1.72 36.0719 2.272C36.3959 2.812 36.5579 3.52 36.5579 4.396C36.5579 5.188 36.4199 5.86 36.1439 6.412C35.8679 6.952 35.5019 7.396 35.0459 7.744C34.5899 8.092 34.0679 8.344 33.4799 8.5C32.9039 8.656 32.3039 8.734 31.6799 8.734C31.6199 8.734 31.5239 8.734 31.3919 8.734C31.2599 8.734 31.1219 8.734 30.9779 8.734C30.8339 8.722 30.6899 8.71 30.5459 8.698C30.4139 8.686 30.3179 8.674 30.2579 8.662V13H27.7919V0.526ZM31.4639 2.344C31.2239 2.344 30.9959 2.356 30.7799 2.38C30.5639 2.392 30.3899 2.41 30.2579 2.434V6.52C30.3059 6.532 30.3779 6.544 30.4739 6.556C30.5699 6.568 30.6719 6.58 30.7799 6.592C30.8879 6.592 30.9899 6.592 31.0859 6.592C31.1939 6.592 31.2719 6.592 31.3199 6.592C31.6439 6.592 31.9619 6.562 32.2739 6.502C32.5979 6.442 32.8859 6.334 33.1379 6.178C33.3899 6.01 33.5879 5.782 33.7319 5.494C33.8879 5.206 33.9659 4.828 33.9659 4.36C33.9659 3.964 33.8939 3.64 33.7499 3.388C33.6059 3.124 33.4139 2.914 33.1739 2.758C32.9459 2.602 32.6819 2.494 32.3819 2.434C32.0819 2.374 31.7759 2.344 31.4639 2.344ZM47.8667 6.466L48.1367 3.964H48.0287L47.2547 5.98L44.5727 10.678H43.7807L40.9547 5.962L40.1627 3.964H40.0727L40.4327 6.448V13H38.0927V0.399999H40.3427L43.7087 6.16L44.3027 7.6H44.3747L44.9147 6.124L48.1007 0.399999H50.3327V13H47.8667V6.466ZM58.6992 10.21H54.8292L53.8752 13H51.4092L55.9452 0.309999H57.7632L62.2992 13H59.7072L58.6992 10.21ZM55.4592 8.23H58.1592L57.2232 5.422L56.8452 3.442H56.7552L56.3772 5.44L55.4592 8.23ZM66.5248 6.7C66.5248 4.6 66.9868 2.986 67.9108 1.858C68.8348 0.717999 70.1548 0.147999 71.8708 0.147999C72.7708 0.147999 73.5568 0.303999 74.2288 0.616C74.9008 0.927999 75.4588 1.372 75.9028 1.948C76.3468 2.524 76.6768 3.214 76.8928 4.018C77.1088 4.822 77.2168 5.716 77.2168 6.7C77.2168 8.8 76.7488 10.42 75.8128 11.56C74.8888 12.688 73.5748 13.252 71.8708 13.252C70.9588 13.252 70.1668 13.096 69.4948 12.784C68.8228 12.472 68.2648 12.028 67.8208 11.452C67.3888 10.876 67.0648 10.186 66.8488 9.382C66.6328 8.578 66.5248 7.684 66.5248 6.7ZM69.1168 6.7C69.1168 7.336 69.1708 7.924 69.2788 8.464C69.3868 8.992 69.5488 9.448 69.7648 9.832C69.9928 10.216 70.2808 10.516 70.6288 10.732C70.9768 10.948 71.3908 11.056 71.8708 11.056C72.7468 11.056 73.4248 10.714 73.9048 10.03C74.3848 9.346 74.6248 8.236 74.6248 6.7C74.6248 6.088 74.5708 5.518 74.4628 4.99C74.3668 4.462 74.2108 4 73.9948 3.604C73.7788 3.208 73.4968 2.902 73.1488 2.686C72.8008 2.458 72.3748 2.344 71.8708 2.344C70.9948 2.344 70.3168 2.698 69.8368 3.406C69.3568 4.102 69.1168 5.2 69.1168 6.7ZM87.2223 2.596H83.5503V13H81.0843V2.596H77.3943V0.399999H87.2223V2.596ZM89.5868 7.42V5.494H90.0188C90.1268 5.494 90.2588 5.494 90.4148 5.494C90.5708 5.494 90.7268 5.494 90.8828 5.494C91.0508 5.482 91.2128 5.47 91.3688 5.458C91.5248 5.434 91.6508 5.41 91.7468 5.386C92.1668 5.29 92.5268 5.122 92.8268 4.882C93.1268 4.63 93.2768 4.294 93.2768 3.874C93.2768 3.298 93.0908 2.908 92.7188 2.704C92.3588 2.488 91.8788 2.38 91.2788 2.38C90.7388 2.38 90.2348 2.452 89.7668 2.596C89.2988 2.74 88.9448 2.878 88.7048 3.01L88.0748 0.922C88.2068 0.849999 88.3928 0.771999 88.6328 0.688C88.8848 0.603999 89.1668 0.525999 89.4788 0.454C89.8028 0.369999 90.1508 0.303999 90.5228 0.256C90.8948 0.208 91.2728 0.184 91.6568 0.184C92.1848 0.184 92.7008 0.232 93.2048 0.327999C93.7088 0.423999 94.1588 0.591999 94.5548 0.831999C94.9508 1.072 95.2688 1.396 95.5088 1.804C95.7488 2.2 95.8688 2.71 95.8688 3.334C95.8688 3.958 95.7008 4.534 95.3648 5.062C95.0408 5.59 94.5128 5.974 93.7808 6.214V6.304C94.5608 6.46 95.1668 6.796 95.5988 7.312C96.0428 7.828 96.2648 8.518 96.2648 9.382C96.2648 10.066 96.1268 10.654 95.8508 11.146C95.5748 11.626 95.2088 12.022 94.7528 12.334C94.3088 12.646 93.7928 12.874 93.2048 13.018C92.6168 13.174 92.0168 13.252 91.4048 13.252C90.6128 13.252 89.8928 13.186 89.2448 13.054C88.5968 12.922 88.0988 12.766 87.7508 12.586L88.3808 10.444C88.6568 10.576 89.0528 10.714 89.5688 10.858C90.0848 10.99 90.6968 11.056 91.4048 11.056C91.6688 11.056 91.9328 11.026 92.1968 10.966C92.4728 10.894 92.7188 10.786 92.9348 10.642C93.1508 10.486 93.3248 10.288 93.4568 10.048C93.5888 9.808 93.6548 9.52 93.6548 9.184C93.6548 8.62 93.4448 8.194 93.0248 7.906C92.6048 7.618 91.8548 7.462 90.7748 7.438C90.6308 7.426 90.5228 7.42 90.4508 7.42C90.3788 7.42 90.2528 7.42 90.0728 7.42H89.5868ZM107.701 0.399999H110.167V13H107.701V0.399999ZM97.9814 0.399999H100.447V4.918C100.579 4.894 100.789 4.864 101.077 4.828C101.365 4.792 101.647 4.774 101.923 4.774C102.523 4.774 103.093 4.834 103.633 4.954C104.185 5.074 104.665 5.29 105.073 5.602C105.481 5.902 105.805 6.316 106.045 6.844C106.285 7.36 106.405 8.014 106.405 8.806C106.405 10.27 105.979 11.368 105.127 12.1C104.275 12.82 103.009 13.18 101.329 13.18C101.161 13.18 100.945 13.174 100.681 13.162C100.417 13.162 100.129 13.15 99.8174 13.126C99.5174 13.102 99.2054 13.072 98.8814 13.036C98.5574 13 98.2574 12.946 97.9814 12.874V0.399999ZM101.509 10.984C102.193 10.984 102.745 10.828 103.165 10.516C103.597 10.192 103.813 9.658 103.813 8.914C103.813 8.518 103.753 8.194 103.633 7.942C103.513 7.69 103.351 7.492 103.147 7.348C102.943 7.204 102.703 7.108 102.427 7.06C102.151 7 101.851 6.97 101.527 6.97C101.359 6.97 101.161 6.988 100.933 7.024C100.705 7.048 100.543 7.078 100.447 7.114V10.876C100.579 10.912 100.735 10.942 100.915 10.966C101.107 10.978 101.305 10.984 101.509 10.984ZM120.821 3.334C120.821 3.646 120.779 3.958 120.695 4.27C120.623 4.582 120.497 4.87 120.317 5.134C120.137 5.386 119.903 5.614 119.615 5.818C119.327 6.01 118.979 6.154 118.571 6.25V6.358C118.931 6.418 119.273 6.52 119.597 6.664C119.921 6.808 120.203 7.006 120.443 7.258C120.683 7.51 120.869 7.816 121.001 8.176C121.145 8.536 121.217 8.962 121.217 9.454C121.217 10.102 121.079 10.666 120.803 11.146C120.527 11.614 120.155 11.998 119.687 12.298C119.231 12.598 118.709 12.82 118.121 12.964C117.533 13.108 116.927 13.18 116.303 13.18C116.099 13.18 115.835 13.18 115.511 13.18C115.199 13.18 114.857 13.168 114.485 13.144C114.125 13.132 113.753 13.108 113.369 13.072C112.997 13.036 112.655 12.982 112.343 12.91V0.489999C112.571 0.454 112.829 0.418 113.117 0.381999C113.417 0.345999 113.735 0.315999 114.071 0.291999C114.407 0.268 114.749 0.25 115.097 0.237999C115.457 0.225999 115.811 0.219999 116.159 0.219999C116.747 0.219999 117.317 0.267999 117.869 0.364C118.433 0.447999 118.931 0.603999 119.363 0.831999C119.807 1.06 120.161 1.378 120.425 1.786C120.689 2.194 120.821 2.71 120.821 3.334ZM116.321 11.146C116.621 11.146 116.909 11.11 117.185 11.038C117.473 10.966 117.725 10.858 117.941 10.714C118.157 10.558 118.331 10.366 118.463 10.138C118.595 9.91 118.661 9.64 118.661 9.328C118.661 8.932 118.583 8.62 118.427 8.392C118.271 8.164 118.067 7.99 117.815 7.87C117.563 7.738 117.281 7.654 116.969 7.618C116.657 7.582 116.345 7.564 116.033 7.564H114.719V11.038C114.779 11.062 114.875 11.08 115.007 11.092C115.139 11.104 115.277 11.116 115.421 11.128C115.577 11.128 115.733 11.134 115.889 11.146C116.057 11.146 116.201 11.146 116.321 11.146ZM115.511 5.692C115.679 5.692 115.871 5.686 116.087 5.674C116.315 5.662 116.501 5.644 116.645 5.62C117.101 5.476 117.491 5.26 117.815 4.972C118.151 4.684 118.319 4.306 118.319 3.838C118.319 3.526 118.259 3.268 118.139 3.064C118.019 2.86 117.857 2.698 117.653 2.578C117.461 2.458 117.239 2.374 116.987 2.326C116.735 2.278 116.471 2.254 116.195 2.254C115.883 2.254 115.595 2.26 115.331 2.272C115.067 2.284 114.863 2.302 114.719 2.326V5.692H115.511ZM129.187 10.21H125.317L124.363 13H121.897L126.433 0.309999H128.251L132.787 13H130.195L129.187 10.21ZM125.947 8.23H128.647L127.711 5.422L127.333 3.442H127.243L126.865 5.44L125.947 8.23Z" fill="white"/>
</svg>
