<svg width="125" height="14" viewBox="0 0 125 14" fill="none" xmlns="http://www.w3.org/2000/svg">
<path d="M7.59345 7.726H2.98545V13H0.519453V0.399999H2.98545V5.53H7.59345V0.399999H10.0595V13H7.59345V7.726ZM21.1901 2.596H17.5181V13H15.0521V2.596H11.3621V0.399999H21.1901V2.596ZM32.2485 6.466L32.5185 3.964H32.4105L31.6365 5.98L28.9545 10.678H28.1625L25.3365 5.962L24.5445 3.964H24.4545L24.8145 6.448V13H22.4745V0.399999H24.7245L28.0905 6.16L28.6845 7.6H28.7565L29.2965 6.124L32.4825 0.399999H34.7145V13H32.2485V6.466ZM44.845 13H36.871V0.399999H39.337V10.804H44.845V13ZM55.2451 10.21H51.3751L50.4211 13H47.9551L52.4911 0.309999H54.3091L58.8451 13H56.2531L55.2451 10.21ZM52.0051 8.23H54.7051L53.7691 5.422L53.3911 3.442H53.3011L52.9231 5.44L52.0051 8.23ZM67.903 12.478C67.519 12.754 67.027 12.952 66.427 13.072C65.839 13.192 65.233 13.252 64.609 13.252C63.853 13.252 63.133 13.138 62.449 12.91C61.777 12.67 61.183 12.292 60.667 11.776C60.151 11.248 59.737 10.57 59.425 9.742C59.125 8.902 58.975 7.888 58.975 6.7C58.975 5.464 59.143 4.432 59.479 3.604C59.827 2.764 60.271 2.092 60.811 1.588C61.363 1.072 61.975 0.705999 62.647 0.489999C63.319 0.261999 63.991 0.147999 64.663 0.147999C65.383 0.147999 65.989 0.195999 66.481 0.291999C66.985 0.388 67.399 0.502 67.723 0.633999L67.237 2.722C66.961 2.59 66.631 2.494 66.247 2.434C65.875 2.374 65.419 2.344 64.879 2.344C63.883 2.344 63.079 2.698 62.467 3.406C61.867 4.114 61.567 5.212 61.567 6.7C61.567 7.348 61.639 7.942 61.783 8.482C61.927 9.01 62.143 9.466 62.431 9.85C62.731 10.222 63.097 10.516 63.529 10.732C63.973 10.936 64.483 11.038 65.059 11.038C65.599 11.038 66.055 10.984 66.427 10.876C66.799 10.768 67.123 10.63 67.399 10.462L67.903 12.478ZM74.8447 10.21H70.9747L70.0207 13H67.5547L72.0907 0.309999H73.9087L78.4447 13H75.8527L74.8447 10.21ZM71.6047 8.23H74.3047L73.3687 5.422L72.9907 3.442H72.9007L72.5227 5.44L71.6047 8.23ZM79.5331 0.399999C79.7851 0.364 80.0671 0.334 80.3791 0.309999C80.7031 0.286 81.0331 0.268 81.3691 0.256C81.7051 0.243999 82.0291 0.237999 82.3411 0.237999C82.6651 0.225999 82.9531 0.219999 83.2051 0.219999C84.3211 0.219999 85.2751 0.375999 86.0671 0.688C86.8591 0.999999 87.5011 1.438 87.9931 2.002C88.4851 2.566 88.8451 3.238 89.0731 4.018C89.3011 4.798 89.4151 5.656 89.4151 6.592C89.4151 7.444 89.3071 8.266 89.0911 9.058C88.8751 9.85 88.5151 10.552 88.0111 11.164C87.5071 11.776 86.8411 12.268 86.0131 12.64C85.1971 13.012 84.1831 13.198 82.9711 13.198C82.7791 13.198 82.5211 13.192 82.1971 13.18C81.8851 13.168 81.5551 13.15 81.2071 13.126C80.8711 13.114 80.5471 13.096 80.2351 13.072C79.9231 13.06 79.6891 13.042 79.5331 13.018V0.399999ZM83.4031 2.416C83.1391 2.416 82.8691 2.422 82.5931 2.434C82.3291 2.446 82.1311 2.464 81.9991 2.488V10.93C82.0471 10.942 82.1251 10.954 82.2331 10.966C82.3531 10.966 82.4791 10.972 82.6111 10.984C82.7431 10.984 82.8691 10.99 82.9891 11.002C83.1091 11.002 83.1991 11.002 83.2591 11.002C83.9551 11.002 84.5311 10.882 84.9871 10.642C85.4551 10.39 85.8211 10.06 86.0851 9.652C86.3611 9.244 86.5531 8.776 86.6611 8.248C86.7691 7.708 86.8231 7.156 86.8231 6.592C86.8231 6.1 86.7751 5.608 86.6791 5.116C86.5831 4.612 86.4031 4.162 86.1391 3.766C85.8871 3.37 85.5391 3.046 85.0951 2.794C84.6511 2.542 84.0871 2.416 83.4031 2.416ZM91.1874 0.399999H98.6574V2.596H93.6534V5.53H98.2074V7.726H93.6534V10.804H98.7474V13H91.1874V0.399999ZM110.366 6.466L110.636 3.964H110.528L109.754 5.98L107.072 10.678H106.28L103.454 5.962L102.662 3.964H102.572L102.932 6.448V13H100.592V0.399999H102.842L106.208 6.16L106.802 7.6H106.874L107.414 6.124L110.6 0.399999H112.832V13H110.366V6.466ZM118.012 8.32L113.872 0.399999H116.806L119.11 5.134L119.362 6.466H119.452L119.722 5.098L121.954 0.399999H124.6L120.478 8.302V13H118.012V8.32Z" fill="white"/>
</svg>
