<svg width="73" height="14" viewBox="0 0 73 14" fill="none" xmlns="http://www.w3.org/2000/svg">
<path d="M8.19409 2.596H3.33409V13H0.868086V0.399999H8.19409V2.596ZM15.0674 2.596H12.3854C12.3374 3.736 12.2834 4.774 12.2234 5.71C12.1634 6.646 12.0794 7.492 11.9714 8.248C11.8754 8.992 11.7434 9.652 11.5754 10.228C11.4074 10.804 11.1914 11.302 10.9274 11.722C10.7594 11.998 10.5674 12.226 10.3514 12.406C10.1474 12.586 9.93141 12.73 9.70341 12.838C9.47541 12.946 9.24741 13.018 9.01941 13.054C8.80341 13.102 8.59941 13.126 8.40741 13.126C8.13141 13.126 7.89741 13.102 7.70541 13.054C7.52541 13.018 7.34541 12.958 7.16541 12.874L7.43541 10.75C7.50741 10.774 7.57941 10.792 7.65141 10.804C7.72341 10.816 7.79541 10.822 7.86741 10.822C8.05941 10.822 8.24541 10.774 8.42541 10.678C8.61741 10.582 8.77941 10.42 8.91141 10.192C9.09141 9.928 9.24741 9.544 9.37941 9.04C9.51141 8.524 9.62541 7.87 9.72141 7.078C9.82941 6.286 9.91341 5.344 9.97341 4.252C10.0334 3.148 10.0754 1.864 10.0994 0.399999H17.5334V13H15.0674V2.596ZM25.9043 10.21H22.0343L21.0803 13H18.6143L23.1503 0.309999H24.9683L29.5043 13H26.9123L25.9043 10.21ZM22.6643 8.23H25.3643L24.4283 5.422L24.0503 3.442H23.9603L23.5823 5.44L22.6643 8.23ZM39.0707 3.334C39.0707 3.646 39.0287 3.958 38.9447 4.27C38.8727 4.582 38.7467 4.87 38.5667 5.134C38.3867 5.386 38.1527 5.614 37.8647 5.818C37.5767 6.01 37.2287 6.154 36.8207 6.25V6.358C37.1807 6.418 37.5227 6.52 37.8467 6.664C38.1707 6.808 38.4527 7.006 38.6927 7.258C38.9327 7.51 39.1187 7.816 39.2507 8.176C39.3947 8.536 39.4667 8.962 39.4667 9.454C39.4667 10.102 39.3287 10.666 39.0527 11.146C38.7767 11.614 38.4047 11.998 37.9367 12.298C37.4807 12.598 36.9587 12.82 36.3707 12.964C35.7827 13.108 35.1767 13.18 34.5527 13.18C34.3487 13.18 34.0847 13.18 33.7607 13.18C33.4487 13.18 33.1067 13.168 32.7347 13.144C32.3747 13.132 32.0027 13.108 31.6187 13.072C31.2467 13.036 30.9047 12.982 30.5927 12.91V0.489999C30.8207 0.454 31.0787 0.418 31.3667 0.381999C31.6667 0.345999 31.9847 0.315999 32.3207 0.291999C32.6567 0.268 32.9987 0.25 33.3467 0.237999C33.7067 0.225999 34.0607 0.219999 34.4087 0.219999C34.9967 0.219999 35.5667 0.267999 36.1187 0.364C36.6827 0.447999 37.1807 0.603999 37.6127 0.831999C38.0567 1.06 38.4107 1.378 38.6747 1.786C38.9387 2.194 39.0707 2.71 39.0707 3.334ZM34.5707 11.146C34.8707 11.146 35.1587 11.11 35.4347 11.038C35.7227 10.966 35.9747 10.858 36.1907 10.714C36.4067 10.558 36.5807 10.366 36.7127 10.138C36.8447 9.91 36.9107 9.64 36.9107 9.328C36.9107 8.932 36.8327 8.62 36.6767 8.392C36.5207 8.164 36.3167 7.99 36.0647 7.87C35.8127 7.738 35.5307 7.654 35.2187 7.618C34.9067 7.582 34.5947 7.564 34.2827 7.564H32.9687V11.038C33.0287 11.062 33.1247 11.08 33.2567 11.092C33.3887 11.104 33.5267 11.116 33.6707 11.128C33.8267 11.128 33.9827 11.134 34.1387 11.146C34.3067 11.146 34.4507 11.146 34.5707 11.146ZM33.7607 5.692C33.9287 5.692 34.1207 5.686 34.3367 5.674C34.5647 5.662 34.7507 5.644 34.8947 5.62C35.3507 5.476 35.7407 5.26 36.0647 4.972C36.4007 4.684 36.5687 4.306 36.5687 3.838C36.5687 3.526 36.5087 3.268 36.3887 3.064C36.2687 2.86 36.1067 2.698 35.9027 2.578C35.7107 2.458 35.4887 2.374 35.2367 2.326C34.9847 2.278 34.7207 2.254 34.4447 2.254C34.1327 2.254 33.8447 2.26 33.5807 2.272C33.3167 2.284 33.1127 2.302 32.9687 2.326V5.692H33.7607ZM48.3015 7.726H43.6935V13H41.2275V0.399999H43.6935V5.53H48.3015V0.399999H50.7675V13H48.3015V7.726ZM59.1621 10.21H55.2921L54.3381 13H51.8721L56.4081 0.309999H58.2261L62.7621 13H60.1701L59.1621 10.21ZM55.9221 8.23H58.6221L57.6861 5.422L57.3081 3.442H57.2181L56.8401 5.44L55.9221 8.23ZM72.1125 13H69.6465V8.014L68.3505 8.356L65.7225 13H62.8605L65.4525 8.806L66.5325 8.032C66.1485 7.936 65.7885 7.792 65.4525 7.6C65.1165 7.396 64.8225 7.138 64.5705 6.826C64.3185 6.514 64.1205 6.148 63.9765 5.728C63.8325 5.296 63.7605 4.81 63.7605 4.27C63.7605 3.514 63.8925 2.878 64.1565 2.362C64.4205 1.846 64.7865 1.432 65.2545 1.12C65.7225 0.795999 66.2805 0.567999 66.9285 0.436C67.5765 0.291999 68.2785 0.219999 69.0345 0.219999C69.2385 0.219999 69.4725 0.225999 69.7365 0.237999C70.0005 0.25 70.2705 0.268 70.5465 0.291999C70.8345 0.315999 71.1105 0.345999 71.3745 0.381999C71.6505 0.418 71.8965 0.466 72.1125 0.526V13ZM68.7285 2.416C68.4045 2.416 68.0985 2.446 67.8105 2.506C67.5225 2.566 67.2705 2.668 67.0545 2.812C66.8385 2.956 66.6645 3.154 66.5325 3.406C66.4125 3.658 66.3525 3.982 66.3525 4.378C66.3525 4.75 66.4125 5.068 66.5325 5.332C66.6525 5.584 66.8205 5.794 67.0365 5.962C67.2525 6.118 67.5045 6.232 67.7925 6.304C68.0805 6.376 68.3925 6.412 68.7285 6.412H69.6465V2.506C69.5145 2.482 69.3765 2.464 69.2325 2.452C69.1005 2.428 68.9325 2.416 68.7285 2.416Z" fill="white"/>
</svg>
