<svg width="124" height="16" viewBox="0 0 124 16" fill="none" xmlns="http://www.w3.org/2000/svg">
<path d="M5.61845 11.632C5.39045 11.668 5.15645 11.692 4.91645 11.704C4.67645 11.716 4.41845 11.722 4.14245 11.722C3.56645 11.722 3.03245 11.626 2.54045 11.434C2.04845 11.23 1.61645 10.924 1.24445 10.516C0.884445 10.096 0.596445 9.574 0.380445 8.95C0.176445 8.314 0.0744453 7.564 0.0744453 6.7C0.0744453 5.884 0.176445 5.158 0.380445 4.522C0.596445 3.874 0.896445 3.328 1.28045 2.884C1.67645 2.428 2.14445 2.08 2.68445 1.84C3.22445 1.6 3.82445 1.48 4.48445 1.48C4.64045 1.48 4.83245 1.486 5.06045 1.498C5.28845 1.51 5.47445 1.534 5.61845 1.57V0.0399995H8.04845V1.624C8.26445 1.564 8.51645 1.528 8.80445 1.516C9.10445 1.492 9.35045 1.48 9.54245 1.48C10.1184 1.48 10.6524 1.588 11.1444 1.804C11.6364 2.008 12.0624 2.326 12.4224 2.758C12.7944 3.178 13.0824 3.706 13.2864 4.342C13.4904 4.966 13.5924 5.692 13.5924 6.52C13.5924 7.372 13.4784 8.122 13.2504 8.77C13.0224 9.418 12.7104 9.964 12.3144 10.408C11.9184 10.84 11.4564 11.17 10.9284 11.398C10.4124 11.614 9.86045 11.722 9.27245 11.722C9.06845 11.722 8.85245 11.716 8.62445 11.704C8.40845 11.68 8.21645 11.644 8.04845 11.596V13.36H5.61845V11.632ZM8.96645 3.478C8.83445 3.478 8.66645 3.484 8.46245 3.496C8.25845 3.508 8.09045 3.532 7.95845 3.568V9.688C8.05445 9.712 8.17445 9.724 8.31845 9.724C8.47445 9.724 8.62445 9.724 8.76845 9.724C9.09245 9.724 9.39845 9.664 9.68645 9.544C9.97445 9.424 10.2264 9.232 10.4424 8.968C10.6584 8.704 10.8264 8.374 10.9464 7.978C11.0664 7.582 11.1264 7.102 11.1264 6.538C11.1264 5.578 10.9344 4.828 10.5504 4.288C10.1664 3.748 9.63845 3.478 8.96645 3.478ZM4.77245 9.724C4.86845 9.724 5.01245 9.724 5.20445 9.724C5.40845 9.712 5.57645 9.682 5.70845 9.634V3.532C5.58845 3.508 5.45045 3.496 5.29445 3.496C5.13845 3.484 4.99445 3.478 4.86245 3.478C4.20245 3.478 3.65045 3.736 3.20645 4.252C2.76245 4.756 2.54045 5.566 2.54045 6.682C2.54045 7.654 2.74445 8.404 3.15245 8.932C3.56045 9.46 4.10045 9.724 4.77245 9.724ZM14.7397 6.7C14.7397 4.6 15.2017 2.986 16.1257 1.858C17.0497 0.717999 18.3697 0.147999 20.0857 0.147999C20.9857 0.147999 21.7717 0.303999 22.4437 0.616C23.1157 0.927999 23.6737 1.372 24.1177 1.948C24.5617 2.524 24.8917 3.214 25.1077 4.018C25.3237 4.822 25.4317 5.716 25.4317 6.7C25.4317 8.8 24.9637 10.42 24.0277 11.56C23.1037 12.688 21.7897 13.252 20.0857 13.252C19.1737 13.252 18.3817 13.096 17.7097 12.784C17.0377 12.472 16.4797 12.028 16.0357 11.452C15.6037 10.876 15.2797 10.186 15.0637 9.382C14.8477 8.578 14.7397 7.684 14.7397 6.7ZM17.3317 6.7C17.3317 7.336 17.3857 7.924 17.4937 8.464C17.6017 8.992 17.7637 9.448 17.9797 9.832C18.2077 10.216 18.4957 10.516 18.8437 10.732C19.1917 10.948 19.6057 11.056 20.0857 11.056C20.9617 11.056 21.6397 10.714 22.1197 10.03C22.5997 9.346 22.8397 8.236 22.8397 6.7C22.8397 6.088 22.7857 5.518 22.6777 4.99C22.5817 4.462 22.4257 4 22.2097 3.604C21.9937 3.208 21.7117 2.902 21.3637 2.686C21.0157 2.458 20.5897 2.344 20.0857 2.344C19.2097 2.344 18.5317 2.698 18.0517 3.406C17.5717 4.102 17.3317 5.2 17.3317 6.7ZM35.4371 2.596H31.7651V13H29.2991V2.596H25.6091V0.399999H35.4371V2.596ZM35.6225 6.7C35.6225 4.6 36.0845 2.986 37.0085 1.858C37.9325 0.717999 39.2525 0.147999 40.9685 0.147999C41.8685 0.147999 42.6545 0.303999 43.3265 0.616C43.9985 0.927999 44.5565 1.372 45.0005 1.948C45.4445 2.524 45.7745 3.214 45.9905 4.018C46.2065 4.822 46.3145 5.716 46.3145 6.7C46.3145 8.8 45.8465 10.42 44.9105 11.56C43.9865 12.688 42.6725 13.252 40.9685 13.252C40.0565 13.252 39.2645 13.096 38.5925 12.784C37.9205 12.472 37.3625 12.028 36.9185 11.452C36.4865 10.876 36.1625 10.186 35.9465 9.382C35.7305 8.578 35.6225 7.684 35.6225 6.7ZM38.2145 6.7C38.2145 7.336 38.2685 7.924 38.3765 8.464C38.4845 8.992 38.6465 9.448 38.8625 9.832C39.0905 10.216 39.3785 10.516 39.7265 10.732C40.0745 10.948 40.4885 11.056 40.9685 11.056C41.8445 11.056 42.5225 10.714 43.0025 10.03C43.4825 9.346 43.7225 8.236 43.7225 6.7C43.7225 6.088 43.6685 5.518 43.5605 4.99C43.4645 4.462 43.3085 4 43.0925 3.604C42.8765 3.208 42.5945 2.902 42.2465 2.686C41.8985 2.458 41.4725 2.344 40.9685 2.344C40.0925 2.344 39.4145 2.698 38.9345 3.406C38.4545 4.102 38.2145 5.2 38.2145 6.7ZM59.7453 6.016L59.8893 4.378H59.7993L58.9533 6.07L54.2553 13H52.4013V0.399999H54.8673V7.258L54.6873 8.95H54.7953L55.6773 7.204L60.3753 0.399999H62.2113V13H59.7453V6.016ZM77.4203 3.334C77.4203 3.646 77.3783 3.958 77.2943 4.27C77.2223 4.582 77.0963 4.87 76.9163 5.134C76.7363 5.386 76.5023 5.614 76.2143 5.818C75.9263 6.01 75.5783 6.154 75.1703 6.25V6.358C75.5303 6.418 75.8723 6.52 76.1963 6.664C76.5203 6.808 76.8023 7.006 77.0423 7.258C77.2823 7.51 77.4683 7.816 77.6003 8.176C77.7443 8.536 77.8163 8.962 77.8163 9.454C77.8163 10.102 77.6783 10.666 77.4023 11.146C77.1263 11.614 76.7543 11.998 76.2863 12.298C75.8303 12.598 75.3083 12.82 74.7203 12.964C74.1323 13.108 73.5263 13.18 72.9023 13.18C72.6983 13.18 72.4343 13.18 72.1103 13.18C71.7983 13.18 71.4563 13.168 71.0843 13.144C70.7243 13.132 70.3523 13.108 69.9683 13.072C69.5963 13.036 69.2543 12.982 68.9423 12.91V0.489999C69.1703 0.454 69.4283 0.418 69.7163 0.381999C70.0163 0.345999 70.3343 0.315999 70.6703 0.291999C71.0063 0.268 71.3483 0.25 71.6963 0.237999C72.0563 0.225999 72.4103 0.219999 72.7583 0.219999C73.3463 0.219999 73.9163 0.267999 74.4683 0.364C75.0323 0.447999 75.5303 0.603999 75.9623 0.831999C76.4063 1.06 76.7603 1.378 77.0243 1.786C77.2883 2.194 77.4203 2.71 77.4203 3.334ZM72.9203 11.146C73.2203 11.146 73.5083 11.11 73.7843 11.038C74.0723 10.966 74.3243 10.858 74.5403 10.714C74.7563 10.558 74.9303 10.366 75.0623 10.138C75.1943 9.91 75.2603 9.64 75.2603 9.328C75.2603 8.932 75.1823 8.62 75.0263 8.392C74.8703 8.164 74.6663 7.99 74.4143 7.87C74.1623 7.738 73.8803 7.654 73.5683 7.618C73.2563 7.582 72.9443 7.564 72.6323 7.564H71.3183V11.038C71.3783 11.062 71.4743 11.08 71.6063 11.092C71.7383 11.104 71.8763 11.116 72.0203 11.128C72.1763 11.128 72.3323 11.134 72.4883 11.146C72.6563 11.146 72.8003 11.146 72.9203 11.146ZM72.1103 5.692C72.2783 5.692 72.4703 5.686 72.6863 5.674C72.9143 5.662 73.1003 5.644 73.2443 5.62C73.7003 5.476 74.0903 5.26 74.4143 4.972C74.7503 4.684 74.9183 4.306 74.9183 3.838C74.9183 3.526 74.8583 3.268 74.7383 3.064C74.6183 2.86 74.4563 2.698 74.2523 2.578C74.0603 2.458 73.8383 2.374 73.5863 2.326C73.3343 2.278 73.0703 2.254 72.7943 2.254C72.4823 2.254 72.1943 2.26 71.9303 2.272C71.6663 2.284 71.4623 2.302 71.3183 2.326V5.692H72.1103ZM86.9211 6.016L87.0651 4.378H86.9751L86.1291 6.07L81.4311 13H79.5771V0.399999H82.0431V7.258L81.8631 8.95H81.9711L82.8531 7.204L87.5511 0.399999H89.3871V13H86.9211V6.016ZM102.617 15.25H100.871L100.601 13H92.5014L92.2314 15.25H90.4854V10.804H91.8174C91.9014 10.672 92.0394 10.378 92.2314 9.922C92.4234 9.466 92.6154 8.824 92.8074 7.996C92.9994 7.156 93.1614 6.112 93.2934 4.864C93.4254 3.604 93.4854 2.116 93.4734 0.399999H101.015V10.804H102.617V15.25ZM98.5494 10.804V2.596H95.7594C95.6874 4.732 95.5134 6.484 95.2374 7.852C94.9734 9.208 94.7034 10.192 94.4274 10.804H98.5494ZM104.011 0.399999H111.481V2.596H106.477V5.53H111.031V7.726H106.477V10.804H111.571V13H104.011V0.399999ZM113.019 6.7C113.019 4.6 113.481 2.986 114.405 1.858C115.329 0.717999 116.649 0.147999 118.365 0.147999C119.265 0.147999 120.051 0.303999 120.723 0.616C121.395 0.927999 121.953 1.372 122.397 1.948C122.841 2.524 123.171 3.214 123.387 4.018C123.603 4.822 123.711 5.716 123.711 6.7C123.711 8.8 123.243 10.42 122.307 11.56C121.383 12.688 120.069 13.252 118.365 13.252C117.453 13.252 116.661 13.096 115.989 12.784C115.317 12.472 114.759 12.028 114.315 11.452C113.883 10.876 113.559 10.186 113.343 9.382C113.127 8.578 113.019 7.684 113.019 6.7ZM115.611 6.7C115.611 7.336 115.665 7.924 115.773 8.464C115.881 8.992 116.043 9.448 116.259 9.832C116.487 10.216 116.775 10.516 117.123 10.732C117.471 10.948 117.885 11.056 118.365 11.056C119.241 11.056 119.919 10.714 120.399 10.03C120.879 9.346 121.119 8.236 121.119 6.7C121.119 6.088 121.065 5.518 120.957 4.99C120.861 4.462 120.705 4 120.489 3.604C120.273 3.208 119.991 2.902 119.643 2.686C119.295 2.458 118.869 2.344 118.365 2.344C117.489 2.344 116.811 2.698 116.331 3.406C115.851 4.102 115.611 5.2 115.611 6.7Z" fill="white"/>
</svg>
